<svg width="520" height="67" viewBox="0 0 520 67" fill="none" xmlns="http://www.w3.org/2000/svg">
    <path d="M50.171 63.1794L46.2543 52.4631H18.4644L14.5477 63.1794H0L24.0597 1.02503H40.6591L64.6255 63.1794H50.171ZM32.3594 12.4868L22.0081 41.0014H42.6174L32.3594 12.4868Z" fill="#0C3B3A"/>
    <path d="M104.297 64.2976C86.1127 64.2976 71.6582 51.2517 71.6582 32.1488C71.6582 13.0459 86.1127 0 104.297 0C118.472 0 126.399 7.4548 130.782 15.1891L119.405 20.7803C116.794 15.7483 111.198 11.7413 104.297 11.7413C93.4798 11.7413 85.2734 20.4075 85.2734 32.1488C85.2734 43.8901 93.4798 52.5563 104.297 52.5563C111.198 52.5563 116.794 48.6426 119.405 43.5174L130.782 49.0153C126.306 56.7497 118.472 64.2976 104.297 64.2976Z" fill="#0C3B3A"/>
    <path d="M208.139 32.1488C208.139 40.9082 205.155 48.5494 200.026 54.1405L204.595 59.452L195.363 67L190.42 61.1293C186.037 63.1794 181.002 64.2976 175.593 64.2976C156.849 64.2976 143.14 50.879 143.14 32.1488C143.14 13.4186 156.849 0 175.593 0C194.43 0 208.139 13.4186 208.139 32.1488ZM175.593 52.5563C177.924 52.5563 180.162 52.1836 182.121 51.4381L175.033 43.1446L184.266 35.6898L191.353 43.9833C193.404 40.7218 194.524 36.6217 194.524 32.1488C194.524 20.5007 187.063 11.7413 175.593 11.7413C164.123 11.7413 156.755 20.5007 156.755 32.1488C156.755 43.7038 164.123 52.5563 175.593 52.5563Z" fill="#0C3B3A"/>
    <path d="M224.892 38.3922V1.02503H238.32V37.9263C238.32 46.5925 243.076 52.5563 252.775 52.5563C262.287 52.5563 267.043 46.5925 267.043 37.9263V1.02503H280.472V38.299C280.472 53.7677 271.612 64.2976 252.775 64.2976C233.751 64.2976 224.892 53.6745 224.892 38.3922Z" fill="#0C3B3A"/>
    <path d="M300.199 63.1794V1.02503H313.441V63.1794H300.199Z" fill="#0C3B3A"/>
    <path d="M368.406 63.1794L356.19 40.9082H346.492V63.1794H333.249V1.02503H362.345C375.307 1.02503 383.234 9.50487 383.234 21.0598C383.234 32.0556 376.333 37.9263 369.619 39.5104L383.607 63.1794H368.406ZM369.712 20.9666C369.712 15.7483 365.702 12.3936 360.387 12.3936H346.492V29.5396H360.387C365.702 29.5396 369.712 26.185 369.712 20.9666Z" fill="#0C3B3A"/>
    <path d="M400.633 63.1794V1.02503H444.649V12.3936H413.875V25.9054H443.997V37.274H413.875V51.7177H444.649V63.1794H400.633Z" fill="#0C3B3A"/>
    <path d="M462.462 63.1794V1.02503H486.988C506.478 1.02503 520 13.4186 520 32.1488C520 50.879 506.478 63.1794 486.988 63.1794H462.462ZM475.704 51.5313H486.988C499.297 51.5313 506.478 42.6787 506.478 32.1488C506.478 21.153 499.764 12.6732 486.988 12.6732H475.704V51.5313Z" fill="#0C3B3A"/>
    </svg>
